<svg width="128" height="128" viewBox="0 0 128 128" fill="none" xmlns="http://www.w3.org/2000/svg">
<path d="M8 8H120V120H8V8Z" fill="#F5DE19"/>
<path d="M83.236 95.4999C84.1918 97.4371 85.6748 99.0653 87.5145 100.197C89.3542 101.33 91.476 101.92 93.636 101.9C97.996 101.9 100.784 99.7199 100.784 96.6999C100.784 93.0999 97.92 91.8119 93.12 89.7119L90.488 88.5839C82.888 85.3479 77.848 81.2959 77.848 72.7279C77.848 64.8359 83.848 58.8239 93.26 58.8239C96.3068 58.6044 99.3507 59.2866 102.012 60.7853C104.674 62.284 106.836 64.533 108.228 67.2519L100 72.5119C99.4636 71.1639 98.5304 70.0107 97.3239 69.205C96.1175 68.3992 94.6947 67.979 93.244 67.9999C92.6111 67.9366 91.9719 68.0057 91.3671 68.2031C90.7624 68.4004 90.2054 68.7215 89.7316 69.146C89.2578 69.5705 88.8777 70.089 88.6153 70.6685C88.353 71.248 88.2143 71.8758 88.208 72.5119C88.208 75.6679 90.164 76.9479 94.68 78.9119L97.312 80.0399C106.256 83.8759 111.312 87.7839 111.312 96.5719C111.312 106.048 103.868 111.24 93.872 111.24C89.9776 111.486 86.0953 110.6 82.6924 108.69C79.2895 106.781 76.5112 103.928 74.692 100.476L83.236 95.4999ZM46.056 96.4119C47.708 99.3439 49.212 101.824 52.828 101.824C56.284 101.824 58.468 100.472 58.468 95.2119V59.4239H68.992V95.3519C68.992 106.248 62.592 111.208 53.276 111.208C49.983 111.388 46.7126 110.567 43.8948 108.854C41.0769 107.14 38.8435 104.614 37.488 101.608L46.056 96.4119Z" fill="black"/>
</svg>
